<svg xmlns="http://www.w3.org/2000/svg" xmlns:xlink="http://www.w3.org/1999/xlink" xmlns:lucid="lucid" width="1200" height="580"><g transform="translate(-40 -20)" lucid:page-tab-id="eNbqbEM6f5NI"><path d="M188 52c17.67 0 32 17.9 32 40s-14.33 40-32 40H92c-17.67 0-32-17.9-32-40s14.33-40 32-40z" stroke="#666" stroke-width="2" fill="#f9f5c2"/><use xlink:href="#a" transform="matrix(1,0,0,1,60,52) translate(27.43 44.4)"/><use xlink:href="#b" transform="matrix(1,0,0,1,60,52) translate(80.83000000000001 44.4)"/><path d="M188 480c17.67 0 32 17.9 32 40s-14.33 40-32 40H92c-17.67 0-32-17.9-32-40s14.33-40 32-40z" stroke="#666" stroke-width="2" fill="#f9f5c2"/><use xlink:href="#a" transform="matrix(1,0,0,1,60,480) translate(27.43 44.4)"/><use xlink:href="#b" transform="matrix(1,0,0,1,60,480) translate(80.83000000000001 44.4)"/><path d="M388 52c17.67 0 32 17.9 32 40s-14.33 40-32 40h-96c-17.67 0-32-17.9-32-40s14.33-40 32-40z" stroke="#666" stroke-width="2" fill="#f9f5c2"/><use xlink:href="#c" transform="matrix(1,0,0,1,260,52) translate(24.58 31.9)"/><use xlink:href="#d" transform="matrix(1,0,0,1,260,52) translate(74.03 31.9)"/><use xlink:href="#e" transform="matrix(1,0,0,1,260,52) translate(121.43 31.9)"/><use xlink:href="#f" transform="matrix(1,0,0,1,260,52) translate(57.055 53.5)"/><path d="M588 52c17.67 0 32 17.9 32 40s-14.33 40-32 40h-96c-17.67 0-32-17.9-32-40s14.33-40 32-40z" stroke="#666" stroke-width="2" fill="#f9f5c2"/><use xlink:href="#g" transform="matrix(1,0,0,1,460,52) translate(22.07999999999999 31.9)"/><use xlink:href="#d" transform="matrix(1,0,0,1,460,52) translate(76.53 31.9)"/><use xlink:href="#e" transform="matrix(1,0,0,1,460,52) translate(123.93 31.9)"/><use xlink:href="#f" transform="matrix(1,0,0,1,460,52) translate(57.055 53.5)"/><path d="M388 480c17.67 0 32 17.9 32 40s-14.33 40-32 40h-96c-17.67 0-32-17.9-32-40s14.33-40 32-40z" stroke="#666" stroke-width="2" fill="#f9f5c2"/><use xlink:href="#c" transform="matrix(1,0,0,1,260,480) translate(24.58 31.9)"/><use xlink:href="#d" transform="matrix(1,0,0,1,260,480) translate(74.03 31.9)"/><use xlink:href="#e" transform="matrix(1,0,0,1,260,480) translate(121.43 31.9)"/><use xlink:href="#f" transform="matrix(1,0,0,1,260,480) translate(57.055 53.5)"/><path d="M788 52c17.67 0 32 17.9 32 40s-14.33 40-32 40h-96c-17.67 0-32-17.9-32-40s14.33-40 32-40z" stroke="#666" stroke-width="2" fill="#f9f5c2"/><use xlink:href="#h" transform="matrix(1,0,0,1,660,52) translate(22.255000000000003 31.9)"/><use xlink:href="#i" transform="matrix(1,0,0,1,660,52) translate(91.75500000000001 31.9)"/><use xlink:href="#j" transform="matrix(1,0,0,1,660,52) translate(51.105 53.5)"/><path d="M588 480c17.67 0 32 17.9 32 40s-14.33 40-32 40h-96c-17.67 0-32-17.9-32-40s14.33-40 32-40z" stroke="#666" stroke-width="2" fill="#f9f5c2"/><use xlink:href="#h" transform="matrix(1,0,0,1,460,480) translate(22.255000000000003 31.9)"/><use xlink:href="#i" transform="matrix(1,0,0,1,460,480) translate(91.75500000000001 31.9)"/><use xlink:href="#j" transform="matrix(1,0,0,1,460,480) translate(51.105 53.5)"/><path d="M988 52c17.67 0 32 17.9 32 40s-14.33 40-32 40h-96c-17.67 0-32-17.9-32-40s14.33-40 32-40z" stroke="#666" stroke-width="2" fill="#f9f5c2"/><use xlink:href="#k" transform="matrix(1,0,0,1,860,52) translate(55.03 21.9)"/><use xlink:href="#l" transform="matrix(1,0,0,1,860,52) translate(28.880000000000003 43.5)"/><use xlink:href="#m" transform="matrix(1,0,0,1,860,52) translate(96.23 43.5)"/><use xlink:href="#f" transform="matrix(1,0,0,1,860,52) translate(57.05499999999999 65.10000000000001)"/><path d="M1060 45c0-2.76 2.24-5 5-5h150c2.76 0 5 2.24 5 5v110c0 2.76-2.24 5-5 5h-150c-2.76 0-5-2.24-5-5z" stroke="#666" stroke-width="2" fill="#f9f5c2"/><use xlink:href="#a" transform="matrix(1,0,0,1,1060,40) translate(20.854999999999997 40.65)"/><use xlink:href="#n" transform="matrix(1,0,0,1,1060,40) translate(74.255 40.65)"/><use xlink:href="#o" transform="matrix(1,0,0,1,1060,40) translate(80.00500000000001 62.25)"/><use xlink:href="#p" transform="matrix(1,0,0,1,1060,40) translate(50.779999999999994 83.85000000000001)"/><use xlink:href="#q" transform="matrix(1,0,0,1,1060,40) translate(64.28 83.85000000000001)"/><path d="M1060 465c0-2.76 2.24-5 5-5h150c2.76 0 5 2.24 5 5v110c0 2.76-2.24 5-5 5h-150c-2.76 0-5-2.24-5-5z" stroke="#666" stroke-width="2" fill="#f9f5c2"/><use xlink:href="#a" transform="matrix(1,0,0,1,1060,460) translate(20.854999999999997 40.65)"/><use xlink:href="#n" transform="matrix(1,0,0,1,1060,460) translate(74.255 40.65)"/><use xlink:href="#r" transform="matrix(1,0,0,1,1060,460) translate(80.00500000000001 62.25)"/><use xlink:href="#p" transform="matrix(1,0,0,1,1060,460) translate(50.779999999999994 83.85000000000001)"/><use xlink:href="#s" transform="matrix(1,0,0,1,1060,460) translate(64.28 83.85000000000001)"/><path d="M621 92h19.76" fill="none"/><path d="M622 92c0 .55-.45 1-1 1s-1-.45-1-1 .45-1 1-1 1 .45 1 1zm9.88 0c0 .55-.45 1-1 1s-1-.45-1-1 .45-1 1-1 1 .45 1 1z" fill="#666"/><path d="M621 93h-1.06l.06-1-.04-1H621zM655.76 92l-14.26 4.64v-9.28z" fill="#666"/><path d="M659 92l-18.5 6V86zm-16.5 3.26L652.53 92l-10.03-3.26z" fill="#666"/><path d="M221 92h19.76" fill="none"/><path d="M222 92c0 .55-.45 1-1 1s-1-.45-1-1 .45-1 1-1 1 .45 1 1zm9.88 0c0 .55-.45 1-1 1s-1-.45-1-1 .45-1 1-1 1 .45 1 1z" fill="#666"/><path d="M221 93h-1.06l.06-1-.04-1H221zM255.76 92l-14.26 4.64v-9.28z" fill="#666"/><path d="M259 92l-18.5 6V86zm-16.5 3.26L252.53 92l-10.03-3.26z" fill="#666"/><path d="M421 92h19.76" fill="none"/><path d="M422 92c0 .55-.45 1-1 1s-1-.45-1-1 .45-1 1-1 1 .45 1 1zm9.88 0c0 .55-.45 1-1 1s-1-.45-1-1 .45-1 1-1 1 .45 1 1z" fill="#666"/><path d="M421 93h-1.06l.06-1-.04-1H421zM455.76 92l-14.26 4.64v-9.28z" fill="#666"/><path d="M459 92l-18.5 6V86zm-16.5 3.26L452.53 92l-10.03-3.26z" fill="#666"/><path d="M821 92h19.76" fill="none"/><path d="M822 92c0 .55-.45 1-1 1s-1-.45-1-1 .45-1 1-1 1 .45 1 1zm9.88 0c0 .55-.45 1-1 1s-1-.45-1-1 .45-1 1-1 1 .45 1 1z" fill="#666"/><path d="M821 93h-1.06l.06-1-.04-1H821zM855.76 92l-14.26 4.64v-9.28z" fill="#666"/><path d="M859 92l-18.5 6V86zm-16.5 3.26L852.53 92l-10.03-3.26z" fill="#666"/><path d="M1021 92h19.76" fill="none"/><path d="M1022 92c0 .55-.45 1-1 1s-1-.45-1-1 .45-1 1-1 1 .45 1 1zm9.88 0c0 .55-.45 1-1 1s-1-.45-1-1 .45-1 1-1 1 .45 1 1z" fill="#666"/><path d="M1021 93h-1.06l.06-1-.04-1h1.04zM1055.76 92l-14.26 4.64v-9.28z" fill="#666"/><path d="M1059 92l-18.5 6V86zm-16.5 3.26l10.03-3.26-10.03-3.26z" fill="#666"/><path d="M221 520h19.76" fill="none"/><path d="M222 520c0 .55-.45 1-1 1s-1-.45-1-1 .45-1 1-1 1 .45 1 1zm9.88 0c0 .55-.45 1-1 1s-1-.45-1-1 .45-1 1-1 1 .45 1 1z" fill="#666"/><path d="M221 521h-1.06l.06-1-.04-1H221zM255.76 520l-14.26 4.64v-9.28z" fill="#666"/><path d="M259 520l-18.5 6v-12zm-16.5 3.26l10.03-3.26-10.03-3.26z" fill="#666"/><path d="M421 520h19.76" fill="none"/><path d="M422 520c0 .55-.45 1-1 1s-1-.45-1-1 .45-1 1-1 1 .45 1 1zm9.88 0c0 .55-.45 1-1 1s-1-.45-1-1 .45-1 1-1 1 .45 1 1z" fill="#666"/><path d="M421 521h-1.06l.06-1-.04-1H421zM455.76 520l-14.26 4.64v-9.28z" fill="#666"/><path d="M459 520l-18.5 6v-12zm-16.5 3.26l10.03-3.26-10.03-3.26z" fill="#666"/><path d="M621 520h419.76" fill="none"/><path d="M622 520c0 .55-.45 1-1 1s-1-.45-1-1 .45-1 1-1 1 .45 1 1zm8.07 0c0 .55-.44 1-1 1-.55 0-1-.45-1-1s.45-1 1-1c.56 0 1 .45 1 1zm8.08 0c0 .55-.45 1-1 1-.56 0-1-.45-1-1s.44-1 1-1c.55 0 1 .45 1 1zm8.07 0c0 .55-.45 1-1 1s-1-.45-1-1 .45-1 1-1 1 .45 1 1zm8.07 0c0 .55-.46 1-1 1-.56 0-1-.45-1-1s.44-1 1-1c.54 0 1 .45 1 1zm8.06 0c0 .55-.45 1-1 1s-1-.45-1-1 .45-1 1-1 1 .45 1 1zm8.07 0c0 .55-.44 1-1 1-.55 0-1-.45-1-1s.45-1 1-1c.56 0 1 .45 1 1zm8.08 0c0 .55-.44 1-1 1-.55 0-1-.45-1-1s.45-1 1-1c.56 0 1 .45 1 1zm8.08 0c0 .55-.45 1-1 1s-1-.45-1-1 .45-1 1-1 1 .45 1 1zm8.07 0c0 .55-.45 1-1 1s-1-.45-1-1 .45-1 1-1 1 .45 1 1zm8.07 0c0 .55-.44 1-1 1-.55 0-1-.45-1-1s.45-1 1-1c.56 0 1 .45 1 1zm8.08 0c0 .55-.45 1-1 1-.56 0-1-.45-1-1s.44-1 1-1c.55 0 1 .45 1 1zm8.07 0c0 .55-.45 1-1 1s-1-.45-1-1 .45-1 1-1 1 .45 1 1zm8.07 0c0 .55-.45 1-1 1s-1-.45-1-1 .45-1 1-1 1 .45 1 1zm8.07 0c0 .55-.43 1-1 1-.54 0-1-.45-1-1s.46-1 1-1c.57 0 1 .45 1 1zm8.1 0c0 .55-.46 1-1 1-.57 0-1-.45-1-1s.43-1 1-1c.54 0 1 .45 1 1zm8.06 0c0 .55-.45 1-1 1s-1-.45-1-1 .45-1 1-1 1 .45 1 1zm8.07 0c0 .55-.45 1-1 1s-1-.45-1-1 .45-1 1-1 1 .45 1 1zm8.07 0c0 .55-.44 1-1 1-.55 0-1-.45-1-1s.45-1 1-1c.56 0 1 .45 1 1zm8.08 0c0 .55-.45 1-1 1-.56 0-1-.45-1-1s.44-1 1-1c.55 0 1 .45 1 1zm8.07 0c0 .55-.45 1-1 1s-1-.45-1-1 .45-1 1-1 1 .45 1 1zm8.07 0c0 .55-.45 1-1 1s-1-.45-1-1 .45-1 1-1 1 .45 1 1zm8.07 0c0 .55-.45 1-1 1-.56 0-1-.45-1-1s.44-1 1-1c.55 0 1 .45 1 1zm8.07 0c0 .55-.45 1-1 1-.56 0-1-.45-1-1s.44-1 1-1c.55 0 1 .45 1 1zm8.07 0c0 .55-.45 1-1 1s-1-.45-1-1 .45-1 1-1 1 .45 1 1zm8.07 0c0 .55-.44 1-1 1-.54 0-1-.45-1-1s.46-1 1-1c.56 0 1 .45 1 1zm8.08 0c0 .55-.45 1-1 1s-1-.45-1-1 .45-1 1-1 1 .45 1 1zm8.07 0c0 .55-.44 1-1 1-.55 0-1-.45-1-1s.45-1 1-1c.56 0 1 .45 1 1zm8.08 0c0 .55-.45 1-1 1-.56 0-1-.45-1-1s.44-1 1-1c.55 0 1 .45 1 1zm8.07 0c0 .55-.45 1-1 1s-1-.45-1-1 .45-1 1-1 1 .45 1 1zm8.07 0c0 .55-.45 1-1 1s-1-.45-1-1 .45-1 1-1 1 .45 1 1zm8.07 0c0 .55-.44 1-1 1-.55 0-1-.45-1-1s.45-1 1-1c.56 0 1 .45 1 1zm8.08 0c0 .55-.45 1-1 1-.56 0-1-.45-1-1s.44-1 1-1c.55 0 1 .45 1 1zm8.07 0c0 .55-.46 1-1 1-.56 0-1-.45-1-1s.44-1 1-1c.54 0 1 .45 1 1zm8.06 0c0 .55-.45 1-1 1s-1-.45-1-1 .45-1 1-1 1 .45 1 1zm8.07 0c0 .55-.44 1-1 1-.55 0-1-.45-1-1s.45-1 1-1c.56 0 1 .45 1 1zm8.08 0c0 .55-.44 1-1 1-.55 0-1-.45-1-1s.45-1 1-1c.56 0 1 .45 1 1zm8.08 0c0 .55-.45 1-1 1s-1-.45-1-1 .45-1 1-1 1 .45 1 1zm8.07 0c0 .55-.45 1-1 1s-1-.45-1-1 .45-1 1-1 1 .45 1 1zm8.07 0c0 .55-.44 1-1 1-.55 0-1-.45-1-1s.45-1 1-1c.56 0 1 .45 1 1zm8.08 0c0 .55-.45 1-1 1-.56 0-1-.45-1-1s.44-1 1-1c.55 0 1 .45 1 1zm8.07 0c0 .55-.45 1-1 1s-1-.45-1-1 .45-1 1-1 1 .45 1 1zm8.07 0c0 .55-.45 1-1 1s-1-.45-1-1 .45-1 1-1 1 .45 1 1zm8.07 0c0 .55-.44 1-1 1-.54 0-1-.45-1-1s.46-1 1-1c.56 0 1 .45 1 1zm8.08 0c0 .55-.44 1-1 1-.55 0-1-.45-1-1s.45-1 1-1c.56 0 1 .45 1 1zm8.08 0c0 .55-.45 1-1 1s-1-.45-1-1 .45-1 1-1 1 .45 1 1zm8.07 0c0 .55-.45 1-1 1s-1-.45-1-1 .45-1 1-1 1 .45 1 1zm8.07 0c0 .55-.45 1-1 1s-1-.45-1-1 .45-1 1-1 1 .45 1 1zm8.07 0c0 .55-.44 1-1 1-.55 0-1-.45-1-1s.45-1 1-1c.56 0 1 .45 1 1zm8.08 0c0 .55-.45 1-1 1-.56 0-1-.45-1-1s.44-1 1-1c.55 0 1 .45 1 1zm8.07 0c0 .55-.45 1-1 1s-1-.45-1-1 .45-1 1-1 1 .45 1 1zm8.07 0c0 .55-.46 1-1 1-.56 0-1-.45-1-1s.44-1 1-1c.54 0 1 .45 1 1zm8.06 0c0 .55-.44 1-1 1-.55 0-1-.45-1-1s.45-1 1-1c.56 0 1 .45 1 1z" fill="#666"/><path d="M621 521h-1.06l.06-1-.04-1H621zM1055.76 520l-14.26 4.64v-9.28z" fill="#666"/><path d="M1059 520l-18.5 6v-12zm-16.5 3.26l10.03-3.26-10.03-3.26z" fill="#666"/><defs><path fill="#666" d="M75-131c50 2 93 3 93-48 0-46-48-41-93-41v89zm0 115c55 4 111 6 111-51 0-53-58-48-111-48v99zm148-52C223 24 102-3 10 0v-9l31-5v-208l-31-4v-10c77 6 193-24 194 56 0 33-20 48-48 54 36 5 67 20 67 58" id="t"/><path fill="#666" d="M32-163c41-10 102-14 102 39v112c8 3 24-2 21 12h-45l-4-17C83 13 3 13 13-46c-2-50 45-50 92-51 4-36-5-70-42-56-6 2-12 4-16 6-4 7 0 23-15 20v-36zM42-47c0 41 41 33 63 22v-59c-34 1-63-1-63 37" id="u"/><path fill="#666" d="M41-130c7 48 86 23 86 84 0 56-69 57-112 41v-40c20 0 9 29 31 31 35 19 77-26 41-50-27-18-72-13-72-59 0-50 58-52 100-41v36c-19 1-8-25-28-25-21-7-50-1-46 23" id="v"/><path fill="#666" d="M60-80l68-73c-7-3-20 0-17-12h58c3 13-13 9-20 12l-47 48 60 93c7 3 21-1 18 12h-68c-3-12 9-9 15-12L82-83 60-60v48c7 3 21-1 18 12H10v-8l21-4v-226l-24-4v-8h53v170" id="w"/><path fill="#666" d="M84-170c49 0 66 33 63 87H46c-8 60 38 80 95 63v10C128-2 108 4 88 4 34 4 14-29 14-84c-1-54 22-86 70-86zm33 73c12-57-57-82-69-24-1 7-2 15-2 24h71" id="x"/><path fill="#666" d="M54-38c-1 25 24 26 44 20v12C71 10 25 9 25-35v-115H4c-2-14 14-10 21-15l18-38h11v38h38v15H54v112" id="y"/><g id="a"><use transform="matrix(0.05,0,0,0.05,0,0)" xlink:href="#t"/><use transform="matrix(0.05,0,0,0.05,12,0)" xlink:href="#u"/><use transform="matrix(0.05,0,0,0.05,19.95,0)" xlink:href="#v"/><use transform="matrix(0.05,0,0,0.05,26.950000000000003,0)" xlink:href="#w"/><use transform="matrix(0.05,0,0,0.05,35.95,0)" xlink:href="#x"/><use transform="matrix(0.05,0,0,0.05,43.900000000000006,0)" xlink:href="#y"/></g><path fill="#666" d="M45-84c0 64 52 80 104 63 1 25-30 25-55 25-56 0-80-32-80-88 0-76 62-98 131-80v46h-10c-5-15-4-31-23-35-47-10-67 21-67 69" id="z"/><path fill="#666" d="M57-145c16-10 35-24 60-25v45c-19 1-8-30-40-17l-20 6v124l29 4v8H7v-8l21-4v-141c-8-3-24 2-21-12h48" id="A"/><path fill="#666" d="M13-81c0-71 46-101 114-85l-1-72-28-4v-8h57v238c8 3 24-2 21 12h-47l-2-12C80 23 13-1 13-81zm77-74c-37 1-44 33-45 74 0 38 9 66 45 66 14 0 27-3 36-7v-130c-10-1-24-3-36-3" id="B"/><g id="b"><use transform="matrix(0.05,0,0,0.05,0,0)" xlink:href="#z"/><use transform="matrix(0.05,0,0,0.05,7.95,0)" xlink:href="#A"/><use transform="matrix(0.05,0,0,0.05,13.9,0)" xlink:href="#x"/><use transform="matrix(0.05,0,0,0.05,21.85,0)" xlink:href="#u"/><use transform="matrix(0.05,0,0,0.05,29.8,0)" xlink:href="#y"/><use transform="matrix(0.05,0,0,0.05,34.8,0)" xlink:href="#x"/><use transform="matrix(0.05,0,0,0.05,42.75,0)" xlink:href="#B"/></g><path fill="#666" d="M199-173c-1 36-21 56-49 65l64 94 26 5v9h-57l-66-103H75v89l35 5v9H13v-9l28-5v-208l-31-4v-10c80 4 190-20 189 63zM75-119c50 2 89-1 89-51 0-49-39-52-89-50v101" id="C"/><path fill="#666" d="M90-170c52 0 76 32 76 87 0 54-24 87-77 87-51 0-75-34-75-87 0-54 24-87 76-87zM89-10c39 0 46-35 46-73 0-39-7-73-46-73-39 1-44 34-44 73s6 72 44 73" id="D"/><g id="c"><use transform="matrix(0.05,0,0,0.05,0,0)" xlink:href="#C"/><use transform="matrix(0.05,0,0,0.05,12,0)" xlink:href="#D"/><use transform="matrix(0.05,0,0,0.05,21,0)" xlink:href="#z"/><use transform="matrix(0.05,0,0,0.05,28.950000000000003,0)" xlink:href="#w"/><use transform="matrix(0.05,0,0,0.05,37.95,0)" xlink:href="#v"/></g><g id="d"><use transform="matrix(0.05,0,0,0.05,0,0)" xlink:href="#u"/><use transform="matrix(0.05,0,0,0.05,7.95,0)" xlink:href="#B"/><use transform="matrix(0.05,0,0,0.05,16.95,0)" xlink:href="#B"/><use transform="matrix(0.05,0,0,0.05,25.950000000000003,0)" xlink:href="#x"/><use transform="matrix(0.05,0,0,0.05,33.9,0)" xlink:href="#B"/></g><g id="e"><use transform="matrix(0.05,0,0,0.05,0,0)" xlink:href="#y"/><use transform="matrix(0.05,0,0,0.05,5,0)" xlink:href="#D"/></g><path fill="#666" d="M53-14c58 12 82-15 82-73 0-52-35-77-82-58v131zM89 4C64 4 42-2 24-9v-229l-24-4v-8h53l-1 94c48-33 114-4 114 69 0 57-23 91-77 91" id="E"/><g id="f"><use transform="matrix(0.05,0,0,0.05,0,0)" xlink:href="#E"/><use transform="matrix(0.05,0,0,0.05,9,0)" xlink:href="#u"/><use transform="matrix(0.05,0,0,0.05,16.95,0)" xlink:href="#v"/><use transform="matrix(0.05,0,0,0.05,23.95,0)" xlink:href="#w"/><use transform="matrix(0.05,0,0,0.05,32.95,0)" xlink:href="#x"/><use transform="matrix(0.05,0,0,0.05,40.900000000000006,0)" xlink:href="#y"/></g><path fill="#666" d="M52-115c0 93 80 130 150 87l7-35h11l-1 55c-23 7-52 12-83 12C60 4 19-37 15-115c-5-113 97-141 201-114l1 51h-12l-5-30c-15-9-39-16-62-16-66 0-86 41-86 109" id="F"/><path fill="#666" d="M65-12l28 4v8H7v-8l28-4v-226l-28-4v-8h58v238" id="G"/><g id="g"><use transform="matrix(0.05,0,0,0.05,0,0)" xlink:href="#F"/><use transform="matrix(0.05,0,0,0.05,12,0)" xlink:href="#G"/><use transform="matrix(0.05,0,0,0.05,17,0)" xlink:href="#D"/><use transform="matrix(0.05,0,0,0.05,26,0)" xlink:href="#z"/><use transform="matrix(0.05,0,0,0.05,33.95,0)" xlink:href="#w"/><use transform="matrix(0.05,0,0,0.05,42.95,0)" xlink:href="#v"/></g><path fill="#666" d="M178-68c0 79-95 82-154 59v-54h12c1 35 22 52 60 52 50 0 69-58 33-82-39-24-105-21-105-85 0-67 86-66 142-53v49h-12l-6-29c-31-27-121-7-89 42 28 43 119 24 119 101" id="H"/><path fill="#666" d="M126-119c3-38-42-31-69-25v132l23 4v8H7v-8l21-4v-226l-24-4v-8h53l-1 98c31-22 99-31 99 31v109c7 3 23-1 20 12h-71v-8l22-4v-107" id="I"/><path fill="#666" d="M47-200c-23 0-25-39 0-38 13 0 18 7 20 19-1 11-8 19-20 19zM65-12l28 4v8H8v-8l28-4v-141l-24-4v-8h53v153" id="J"/><path fill="#666" d="M166-85c3 67-44 102-111 85l1 64 29 4v9H6v-9l21-4v-217c-7-3-22 1-19-12h46l1 9c11-8 26-14 45-14 47 2 64 36 66 85zM56-13c53 14 83-14 78-72 7-53-33-79-78-60v132" id="K"/><path fill="#666" d="M125-118c4-37-41-34-68-26v132l23 4v8H8C5-13 21-9 28-12v-141c-7-3-23 1-20-12h47l2 13c31-23 98-29 98 31v109c7 3 23-1 20 12h-72v-8l22-4v-106" id="L"/><path fill="#666" d="M141-152c28 39 5 97-54 97-9 0-20-2-27-3L49-35c29 22 130-14 124 52-4 45-38 57-88 61C21 83-8 26 45-2 33-6 22-15 21-31l28-31c-19-9-28-26-28-51-2-51 53-65 100-52l38-20 7 8zM85 64c35 0 61-11 61-42 0-35-57-17-89-21-9 8-16 19-17 34 0 25 19 29 45 29zM52-113c1 26 7 46 35 44 28-1 34-16 35-44 0-26-6-43-34-43s-36 17-36 43" id="M"/><g id="h"><use transform="matrix(0.05,0,0,0.05,0,0)" xlink:href="#H"/><use transform="matrix(0.05,0,0,0.05,10,0)" xlink:href="#I"/><use transform="matrix(0.05,0,0,0.05,19,0)" xlink:href="#J"/><use transform="matrix(0.05,0,0,0.05,24,0)" xlink:href="#K"/><use transform="matrix(0.05,0,0,0.05,33,0)" xlink:href="#K"/><use transform="matrix(0.05,0,0,0.05,42,0)" xlink:href="#J"/><use transform="matrix(0.05,0,0,0.05,47,0)" xlink:href="#L"/><use transform="matrix(0.05,0,0,0.05,56,0)" xlink:href="#M"/></g><g id="i"><use transform="matrix(0.05,0,0,0.05,0,0)" xlink:href="#D"/><use transform="matrix(0.05,0,0,0.05,9,0)" xlink:href="#K"/><use transform="matrix(0.05,0,0,0.05,18,0)" xlink:href="#y"/><use transform="matrix(0.05,0,0,0.05,23,0)" xlink:href="#J"/><use transform="matrix(0.05,0,0,0.05,28,0)" xlink:href="#D"/><use transform="matrix(0.05,0,0,0.05,37,0)" xlink:href="#L"/></g><g id="j"><use transform="matrix(0.05,0,0,0.05,0,0)" xlink:href="#v"/><use transform="matrix(0.05,0,0,0.05,7,0)" xlink:href="#x"/><use transform="matrix(0.05,0,0,0.05,14.949999999999998,0)" xlink:href="#G"/><use transform="matrix(0.05,0,0,0.05,19.95,0)" xlink:href="#x"/><use transform="matrix(0.05,0,0,0.05,27.899999999999995,0)" xlink:href="#z"/><use transform="matrix(0.05,0,0,0.05,35.85,0)" xlink:href="#y"/><use transform="matrix(0.05,0,0,0.05,40.85,0)" xlink:href="#x"/><use transform="matrix(0.05,0,0,0.05,48.800000000000004,0)" xlink:href="#B"/></g><g id="k"><use transform="matrix(0.05,0,0,0.05,0,0)" xlink:href="#F"/><use transform="matrix(0.05,0,0,0.05,12,0)" xlink:href="#G"/><use transform="matrix(0.05,0,0,0.05,17,0)" xlink:href="#D"/><use transform="matrix(0.05,0,0,0.05,26,0)" xlink:href="#z"/><use transform="matrix(0.05,0,0,0.05,33.95,0)" xlink:href="#w"/><use transform="matrix(0.05,0,0,0.05,42.95,0)" xlink:href="#v"/></g><path fill="#666" d="M126-118c4-37-42-32-68-25v131l24 4v8H8C5-13 21-9 28-12v-141c-7-3-23 1-20-12h48l1 13c22-15 77-30 92 2 32-22 104-36 104 29v109c8 3 24-2 21 12h-75v-8l25-4v-106c3-39-45-31-72-24 7 37 1 88 3 130l25 4v8h-78v-8l24-4v-106" id="N"/><path fill="#666" d="M164-154L98 4H85L17-153c-7-3-20 0-17-12h77v8l-26 4L99-38l46-115-26-4v-8h61v8" id="O"/><g id="l"><use transform="matrix(0.05,0,0,0.05,0,0)" xlink:href="#A"/><use transform="matrix(0.05,0,0,0.05,5.95,0)" xlink:href="#x"/><use transform="matrix(0.05,0,0,0.05,13.9,0)" xlink:href="#N"/><use transform="matrix(0.05,0,0,0.05,27.899999999999995,0)" xlink:href="#D"/><use transform="matrix(0.05,0,0,0.05,36.9,0)" xlink:href="#O"/><use transform="matrix(0.05,0,0,0.05,45.9,0)" xlink:href="#x"/><use transform="matrix(0.05,0,0,0.05,53.85,0)" xlink:href="#B"/></g><path fill="#666" d="M103-236c-39-15-35 32-34 71h44v15H69v136l35 6v8H15v-8l25-6v-136H11v-9l29-7c-6-59 23-100 80-84v36c-15 2-12-14-17-22" id="P"/><g id="m"><use transform="matrix(0.05,0,0,0.05,0,0)" xlink:href="#P"/><use transform="matrix(0.05,0,0,0.05,5.95,0)" xlink:href="#A"/><use transform="matrix(0.05,0,0,0.05,11.9,0)" xlink:href="#D"/><use transform="matrix(0.05,0,0,0.05,20.9,0)" xlink:href="#N"/></g><path fill="#666" d="M50-37c14 0 21 9 21 21S62 5 50 5C37 5 28-4 28-16s8-21 22-21zm0-132c12 0 21 9 21 21 0 13-9 22-21 22-13 0-22-9-22-22 0-12 9-21 22-21" id="Q"/><g id="n"><use transform="matrix(0.05,0,0,0.05,0,0)" xlink:href="#z"/><use transform="matrix(0.05,0,0,0.05,7.95,0)" xlink:href="#D"/><use transform="matrix(0.05,0,0,0.05,16.95,0)" xlink:href="#L"/><use transform="matrix(0.05,0,0,0.05,25.950000000000003,0)" xlink:href="#y"/><use transform="matrix(0.05,0,0,0.05,30.950000000000003,0)" xlink:href="#u"/><use transform="matrix(0.05,0,0,0.05,38.9,0)" xlink:href="#J"/><use transform="matrix(0.05,0,0,0.05,43.9,0)" xlink:href="#L"/><use transform="matrix(0.05,0,0,0.05,52.900000000000006,0)" xlink:href="#v"/><use transform="matrix(0.05,0,0,0.05,59.900000000000006,0)" xlink:href="#Q"/></g><path fill="#666" d="M18-187l11-25 55 34-7-58h27l-8 58 56-34 11 25-59 17 59 17-11 25-56-33 8 57H77l7-57-55 34-11-25 57-18" id="R"/><use transform="matrix(0.05,0,0,0.05,0,0)" xlink:href="#R" id="p"/><g id="q"><use transform="matrix(0.05,0,0,0.05,0,0)" xlink:href="#C"/><use transform="matrix(0.05,0,0,0.05,12,0)" xlink:href="#D"/><use transform="matrix(0.05,0,0,0.05,21,0)" xlink:href="#z"/><use transform="matrix(0.05,0,0,0.05,28.950000000000003,0)" xlink:href="#w"/><use transform="matrix(0.05,0,0,0.05,37.95,0)" xlink:href="#v"/></g><g id="s"><use transform="matrix(0.05,0,0,0.05,0,0)" xlink:href="#C"/><use transform="matrix(0.05,0,0,0.05,12,0)" xlink:href="#D"/><use transform="matrix(0.05,0,0,0.05,21,0)" xlink:href="#z"/><use transform="matrix(0.05,0,0,0.05,28.950000000000003,0)" xlink:href="#w"/><use transform="matrix(0.05,0,0,0.05,37.95,0)" xlink:href="#v"/></g></defs></g></svg>