<svg xmlns="http://www.w3.org/2000/svg" xmlns:xlink="http://www.w3.org/1999/xlink" xmlns:lucid="lucid" width="1000" height="600"><g transform="translate(-120 -120)" lucid:page-tab-id="0_0"><path d="M520 165c0-2.76 2.24-5 5-5h150c2.76 0 5 2.24 5 5v110c0 2.76-2.24 5-5 5H525c-2.76 0-5-2.24-5-5z" stroke="#000" stroke-width="2" fill="#ffdf71"/><path d="M536 160v120m128-120v120" stroke="#000" stroke-width="2" fill="none"/><use xlink:href="#a" transform="matrix(1,0,0,1,540,160) translate(32.05 63.6)"/><path d="M520 405c0-2.76 2.24-5 5-5h150c2.76 0 5 2.24 5 5v110c0 2.76-2.24 5-5 5H525c-2.76 0-5-2.24-5-5z" stroke="#000" stroke-width="2" fill="#99d2f2"/><path d="M536 400v120m128-120v120" stroke="#000" stroke-width="2" fill="none"/><use xlink:href="#b" transform="matrix(1,0,0,1,540,400) translate(37.525 63.6)"/><path d="M395 294c0 3.3-13.43 6-30 6s-30-2.7-30-6v-48c0-3.3 13.43-6 30-6s30 2.7 30 6z" stroke="#000" stroke-width="2" fill="#99d2f2"/><path d="M395 246c0 3.3-13.43 6-30 6s-30-2.7-30-6" stroke="#000" stroke-width="2" fill="none"/><use xlink:href="#c" transform="matrix(1,0,0,1,335,257) translate(9.005 25.15)"/><path d="M320 145c0-2.76 2.24-5 5-5h80c2.76 0 5 2.24 5 5v30c0 2.76-2.24 5-5 5h-80c-2.76 0-5-2.24-5-5z" stroke="#000" stroke-width="2" fill="#ffdf71"/><use xlink:href="#d" transform="matrix(1,0,0,1,320,140) translate(5.554999999999994 23.41)"/><path d="M411 160l3.24.07 3.02.2 2.82.34 2.66.45 2.54.53 2.43.63 2.36.75 2.3.83 2.26.94 2.25 1.05 2.26 1.2 2.3 1.35 2.35 1.54 2.48 1.8 2.7 2.13 3 2.63 3.74 3.58 6.53 6.94L474.3 200l3.73 3.57 3.02 2.64 2.7 2.15 2.47 1.8 2.36 1.53 2.3 1.35 2.25 1.2 2.25 1.05 2.26.94 2.3.83 1.08.34" stroke="#ffdf71" stroke-width="2" fill="none"/><path d="M411.12 159l-.23 2-.9-.1v-2.02zM515.8 219.54l-14.8 2.53 1.34-9.17z" fill="#ffdf71"/><path d="M519 220l-19.17 3.3 1.72-11.9zm-16.8.86l10.4-1.8-9.46-4.65z" fill="#ffdf71"/><path d="M396 270l4.52-.1 4.13-.25 3.8-.4 3.54-.52 3.32-.64 3.15-.75 3.03-.84 2.93-.94 2.86-1.07 2.83-1.2 2.86-1.35 2.92-1.53 3.1-1.78 3.36-2.15 4-2.78 5.9-4.5 16.35-12.94 4-2.77 3.36-2.14 3.08-1.78 2.93-1.53 2.87-1.35 2.84-1.2 2.87-1.06 2.93-.95 3.02-.85 3.16-.74 1.2-.22" stroke="#99d2f2" stroke-width="2" fill="none"/><path d="M396.07 271l-1.07.08v-2l.93-.08zM515.78 220.3L502 226.23l-.85-9.23z" fill="#99d2f2"/><path d="M519 220l-17.87 7.7-1.1-11.98zm-16.13 4.77l9.7-4.17-10.3-2.32z" fill="#99d2f2"/><path d="M424.63 426.78l4.93 3.75 5.07 3.52 5.2 3.3 5.34 3.08 5.46 2.86 5.6 2.62 5.7 2.4 5.84 2.17 5.96 1.93 6.08 1.7 6.2 1.45 6.34 1.2 6.46.96 6.6.7 6.72.42 6.9.14-.04 2-6.94-.15-6.82-.42-6.67-.7-6.54-.97-6.4-1.22-6.3-1.48-6.15-1.72-6.04-1.96-5.9-2.2-5.8-2.43-5.66-2.67-5.53-2.9-5.4-3.12-5.28-3.34-5.14-3.58-5-3.8-4.84-4-.25-.22h3.1zm-57.68-107.46l.9 7.1 1.18 6.97 1.45 6.82 1.72 6.7 1.98 6.54 2.22 6.4 2.47 6.23 2.7 6.07 2.94 5.9 3.16 5.74 3.37 5.57 3.56 5.37 3.76 5.18 2.05 2.6h-2.54l-1.1-1.4-3.8-5.24-3.62-5.44-3.4-5.63-3.2-5.8-2.97-5.98-2.74-6.15-2.5-6.32-2.26-6.47-2-6.63-1.74-6.77-1.47-6.92-1.2-7.05-.9-7.18-.02-.23 2-.18z" fill="#c1e4f7"/><path d="M520 459.05v2l-1.05-.05.1-2zM370.53 318.24l-9.26.48 3.9-14.5z" fill="#c1e4f7"/><path d="M371.96 319.17l-12 .62L365 301zm-9.36-1.52l6.5-.34-3.77-9.84z" fill="#c1e4f7"/><use xlink:href="#e" transform="matrix(1,0,0,1,368.5200051050205,402.5155799217751) translate(0 14.4)"/><use xlink:href="#f" transform="matrix(1,0,0,1,368.5200051050205,402.5155799217751) translate(40.900000000000006 14.4)"/><path d="M789.1 298.34l1.37 3.93 1.2 3.94 1 3.97.86 4 .68 4.02.53 4.07.34 4.14.18 4.2v4.3l-.2 4.37-.36 4.48-.38 3.05-.47 3.04-.66 3.27-.88 3.54-1.13 3.8-1.43 4.13-1.76 4.48-2.16 4.84-2.62 5.23-3.13 5.63-3.72 6.02-4.3 6.35-4.92 6.6-5.47 6.7-5.95 6.66-6.26 6.42-6.4 6-6.34 5.46-6.13 4.83-5.8 4.17-5.4 3.52-4.95 2.92-4.52 2.4-4.1 1.98-3.73 1.58-2.96 1.1-.7-1.87 2.92-1.08 3.63-1.55 4.02-1.92 4.45-2.37 4.88-2.9 5.32-3.46 5.73-4.1 6.06-4.78 6.26-5.4 6.33-5.95 6.2-6.37 5.87-6.6 5.42-6.64 4.85-6.53 4.25-6.28 3.66-5.95 3.1-5.56 2.58-5.16 2.12-4.77 1.73-4.4 1.38-4.03 1.1-3.73.86-3.43.64-3.18.46-2.97.36-2.98.37-4.4.18-4.3v-4.2l-.17-4.12-.34-4.05-.5-4-.67-3.94-.84-3.9-1-3.9-1.16-3.85-1.34-3.86-.48-1.22h2.15zm-105.77-79.3l2.63.18 2.95.3 3.3.5 3.7.7 4.05.95 4.44 1.24 4.76 1.57 5.06 1.88 5.28 2.22 5.4 2.54 5.44 2.86 5.38 3.1 5.25 3.34 5.06 3.5 4.82 3.67 4.56 3.77 4.27 3.84 3.98 3.9 3.68 3.9 3.4 3.95 3.13 3.94 2.86 3.95.93 1.4h-2.4l-.17-.26-2.82-3.88-3.07-3.87-3.35-3.87-3.63-3.86-3.92-3.83-4.2-3.8-4.5-3.7-4.74-3.6-5-3.48-5.18-3.3-5.3-3.05-5.37-2.8-5.32-2.5-5.2-2.2-4.98-1.84-4.7-1.53-4.35-1.22-3.97-.92-3.6-.7-3.22-.47-2.87-.3-2.55-.15-2.27-.05.04-2z" fill="#ffdf71"/><path d="M681.12 219l-.24 2-.88-.1v-2.02zM699.06 461.22l-14.88-1.84 13.12-7.26z" fill="#ffdf71"/><path d="M700.3 462.38L681 460l17.02-9.42zm-12.95-3.6l10.47 1.28-1.24-6.4z" fill="#ffdf71"/><use xlink:href="#g" transform="matrix(1,0,0,1,736.0094117015517,276.2170768391415) translate(0 14.4)"/><use xlink:href="#h" transform="matrix(1,0,0,1,736.0094117015517,276.2170768391415) translate(40.900000000000006 14.4)"/><path d="M140 645c0-2.76 2.24-5 5-5h134c2.76 0 6.72 1.43 8.84 3.2l28.32 23.6c2.12 1.77 2.12 4.63 0 6.4l-28.32 23.6c-2.12 1.77-6.08 3.2-8.84 3.2H145c-2.76 0-5-2.24-5-5z" stroke="#000" stroke-width="2" fill="#ffdf71"/><use xlink:href="#i" transform="matrix(1,0,0,1,148,648) translate(11.049999999999997 14.799999999999999)"/><use xlink:href="#j" transform="matrix(1,0,0,1,148,648) translate(56.05 14.799999999999999)"/><use xlink:href="#k" transform="matrix(1,0,0,1,148,648) translate(41 36.4)"/><path d="M520 645c0-2.76 2.24-5 5-5h134c2.76 0 6.72 1.43 8.84 3.2l28.32 23.6c2.12 1.77 2.12 4.63 0 6.4l-28.32 23.6c-2.12 1.77-6.08 3.2-8.84 3.2H525c-2.76 0-5-2.24-5-5z" stroke="#000" stroke-width="2" fill="#ffdf71"/><use xlink:href="#l" transform="matrix(1,0,0,1,528,648) translate(10.574999999999996 14.799999999999999)"/><use xlink:href="#m" transform="matrix(1,0,0,1,528,648) translate(71.475 14.799999999999999)"/><use xlink:href="#n" transform="matrix(1,0,0,1,528,648) translate(109.42500000000001 14.799999999999999)"/><use xlink:href="#o" transform="matrix(1,0,0,1,528,648) translate(8.049999999999997 36.4)"/><use xlink:href="#p" transform="matrix(1,0,0,1,528,648) translate(67 36.4)"/><path d="M330 645c0-2.76 2.24-5 5-5h134c2.76 0 6.72 1.43 8.84 3.2l28.32 23.6c2.12 1.77 2.12 4.63 0 6.4l-28.32 23.6c-2.12 1.77-6.08 3.2-8.84 3.2H335c-2.76 0-5-2.24-5-5z" stroke="#000" stroke-width="2" fill="#ffdf71"/><g><use xlink:href="#q" transform="matrix(1,0,0,1,338,648) translate(6.024999999999999 14.799999999999999)"/><use xlink:href="#r" transform="matrix(1,0,0,1,338,648) translate(55.975 14.799999999999999)"/><use xlink:href="#n" transform="matrix(1,0,0,1,338,648) translate(113.975 14.799999999999999)"/><use xlink:href="#s" transform="matrix(1,0,0,1,338,648) translate(21.049999999999997 36.4)"/><use xlink:href="#t" transform="matrix(1,0,0,1,338,648) translate(74.94999999999999 36.4)"/></g><path d="M720 645c0-2.76 2.24-5 5-5h134c2.76 0 6.72 1.43 8.84 3.2l28.32 23.6c2.12 1.77 2.12 4.63 0 6.4l-28.32 23.6c-2.12 1.77-6.08 3.2-8.84 3.2H725c-2.76 0-5-2.24-5-5z" stroke="#000" stroke-width="2" fill="#ffdf71"/><g><use xlink:href="#u" transform="matrix(1,0,0,1,728,648) translate(3.0999999999999943 14.799999999999999)"/><use xlink:href="#v" transform="matrix(1,0,0,1,728,648) translate(66 14.799999999999999)"/><use xlink:href="#w" transform="matrix(1,0,0,1,728,648) translate(21 36.4)"/><use xlink:href="#x" transform="matrix(1,0,0,1,728,648) translate(45 36.4)"/><use xlink:href="#y" transform="matrix(1,0,0,1,728,648) translate(70 36.4)"/></g><path d="M920 645c0-2.76 2.24-5 5-5h134c2.76 0 6.72 1.43 8.84 3.2l28.32 23.6c2.12 1.77 2.12 4.63 0 6.4l-28.32 23.6c-2.12 1.77-6.08 3.2-8.84 3.2H925c-2.76 0-5-2.24-5-5z" stroke="#000" stroke-width="2" fill="#ffdf71"/><g><use xlink:href="#z" transform="matrix(1,0,0,1,928,648) translate(6.074999999999996 14.799999999999999)"/><use xlink:href="#A" transform="matrix(1,0,0,1,928,648) translate(65.975 14.799999999999999)"/><use xlink:href="#B" transform="matrix(1,0,0,1,928,648) translate(95.975 14.799999999999999)"/><use xlink:href="#y" transform="matrix(1,0,0,1,928,648) translate(45.5 36.4)"/></g><defs><path d="M30-248c118-7 216 8 213 122C240-48 200 0 122 0H30v-248zM63-27c89 8 146-16 146-99s-60-101-146-95v194" id="C"/><path d="M100-194c63 0 86 42 84 106H49c0 40 14 67 53 68 26 1 43-12 49-29l28 8c-11 28-37 45-77 45C44 4 14-33 15-96c1-61 26-98 85-98zm52 81c6-60-76-77-97-28-3 7-6 17-6 28h103" id="D"/><path d="M96-169c-40 0-48 33-48 73s9 75 48 75c24 0 41-14 43-38l32 2c-6 37-31 61-74 61-59 0-76-41-82-99-10-93 101-131 147-64 4 7 5 14 7 22l-32 3c-4-21-16-35-41-35" id="E"/><path d="M24-231v-30h32v30H24zM24 0v-190h32V0H24" id="F"/><path d="M85-194c31 0 48 13 60 33l-1-100h32l1 261h-30c-2-10 0-23-3-31C134-8 116 4 85 4 32 4 16-35 15-94c0-66 23-100 70-100zm9 24c-40 0-46 34-46 75 0 40 6 74 45 74 42 0 51-32 51-76 0-42-9-74-50-73" id="G"/><g id="a"><use transform="matrix(0.05,0,0,0.05,0,0)" xlink:href="#C"/><use transform="matrix(0.05,0,0,0.05,12.950000000000001,0)" xlink:href="#D"/><use transform="matrix(0.05,0,0,0.05,22.950000000000003,0)" xlink:href="#E"/><use transform="matrix(0.05,0,0,0.05,31.950000000000003,0)" xlink:href="#F"/><use transform="matrix(0.05,0,0,0.05,35.900000000000006,0)" xlink:href="#G"/><use transform="matrix(0.05,0,0,0.05,45.900000000000006,0)" xlink:href="#D"/></g><path d="M205 0l-28-72H64L36 0H1l101-248h38L239 0h-34zm-38-99l-47-123c-12 45-31 82-46 123h93" id="H"/><path d="M115-194c55 1 70 41 70 98S169 2 115 4C84 4 66-9 55-30l1 105H24l-1-265h31l2 30c10-21 28-34 59-34zm-8 174c40 0 45-34 45-75s-6-73-45-74c-42 0-51 32-51 76 0 43 10 73 51 73" id="I"/><path d="M24 0v-261h32V0H24" id="J"/><path d="M179-190L93 31C79 59 56 82 12 73V49c39 6 53-20 64-50L1-190h34L92-34l54-156h33" id="K"/><g id="b"><use transform="matrix(0.05,0,0,0.05,0,0)" xlink:href="#H"/><use transform="matrix(0.05,0,0,0.05,12,0)" xlink:href="#I"/><use transform="matrix(0.05,0,0,0.05,22,0)" xlink:href="#I"/><use transform="matrix(0.05,0,0,0.05,32,0)" xlink:href="#J"/><use transform="matrix(0.05,0,0,0.05,35.95,0)" xlink:href="#K"/></g><path d="M185-189c-5-48-123-54-124 2 14 75 158 14 163 119 3 78-121 87-175 55-17-10-28-26-33-46l33-7c5 56 141 63 141-1 0-78-155-14-162-118-5-82 145-84 179-34 5 7 8 16 11 25" id="L"/><path d="M59-47c-2 24 18 29 38 22v24C64 9 27 4 27-40v-127H5v-23h24l9-43h21v43h35v23H59v120" id="M"/><path d="M141-36C126-15 110 5 73 4 37 3 15-17 15-53c-1-64 63-63 125-63 3-35-9-54-41-54-24 1-41 7-42 31l-33-3c5-37 33-52 76-52 45 0 72 20 72 64v82c-1 20 7 32 28 27v20c-31 9-61-2-59-35zM48-53c0 20 12 33 32 33 41-3 63-29 60-74-43 2-92-5-92 41" id="N"/><g id="c"><use transform="matrix(0.05,0,0,0.05,0,0)" xlink:href="#L"/><use transform="matrix(0.05,0,0,0.05,12,0)" xlink:href="#M"/><use transform="matrix(0.05,0,0,0.05,17,0)" xlink:href="#N"/><use transform="matrix(0.05,0,0,0.05,27,0)" xlink:href="#M"/><use transform="matrix(0.05,0,0,0.05,32,0)" xlink:href="#D"/></g><path d="M100-194c62-1 85 37 85 99 1 63-27 99-86 99S16-35 15-95c0-66 28-99 85-99zM99-20c44 1 53-31 53-75 0-43-8-75-51-75s-53 32-53 75 10 74 51 75" id="O"/><path d="M210-169c-67 3-38 105-44 169h-31v-121c0-29-5-50-35-48C34-165 62-65 56 0H25l-1-190h30c1 10-1 24 2 32 10-44 99-50 107 0 11-21 27-35 58-36 85-2 47 119 55 194h-31v-121c0-29-5-49-35-48" id="P"/><path d="M117-194c89-4 53 116 60 194h-32v-121c0-31-8-49-39-48C34-167 62-67 57 0H25l-1-190h30c1 10-1 24 2 32 11-22 29-35 61-36" id="Q"/><g id="d"><use transform="matrix(0.05,0,0,0.05,0,0)" xlink:href="#E"/><use transform="matrix(0.05,0,0,0.05,9,0)" xlink:href="#O"/><use transform="matrix(0.05,0,0,0.05,19,0)" xlink:href="#P"/><use transform="matrix(0.05,0,0,0.05,33.95,0)" xlink:href="#P"/><use transform="matrix(0.05,0,0,0.05,48.900000000000006,0)" xlink:href="#N"/><use transform="matrix(0.05,0,0,0.05,58.900000000000006,0)" xlink:href="#Q"/><use transform="matrix(0.05,0,0,0.05,68.9,0)" xlink:href="#G"/></g><path fill="#99d2f2" d="M190 0L58-211 59 0H30v-248h39L202-35l-2-213h31V0h-41" id="R"/><path fill="#99d2f2" d="M100-194c63 0 86 42 84 106H49c0 40 14 67 53 68 26 1 43-12 49-29l28 8c-11 28-37 45-77 45C44 4 14-33 15-96c1-61 26-98 85-98zm52 81c6-60-76-77-97-28-3 7-6 17-6 28h103" id="S"/><path fill="#99d2f2" d="M206 0h-36l-40-164L89 0H53L-1-190h32L70-26l43-164h34l41 164 42-164h31" id="T"/><g id="e"><use transform="matrix(0.05,0,0,0.05,0,0)" xlink:href="#R"/><use transform="matrix(0.05,0,0,0.05,12.950000000000001,0)" xlink:href="#S"/><use transform="matrix(0.05,0,0,0.05,22.950000000000003,0)" xlink:href="#T"/></g><path fill="#99d2f2" d="M135-143c-3-34-86-38-87 0 15 53 115 12 119 90S17 21 10-45l28-5c4 36 97 45 98 0-10-56-113-15-118-90-4-57 82-63 122-42 12 7 21 19 24 35" id="U"/><path fill="#99d2f2" d="M59-47c-2 24 18 29 38 22v24C64 9 27 4 27-40v-127H5v-23h24l9-43h21v43h35v23H59v120" id="V"/><path fill="#99d2f2" d="M141-36C126-15 110 5 73 4 37 3 15-17 15-53c-1-64 63-63 125-63 3-35-9-54-41-54-24 1-41 7-42 31l-33-3c5-37 33-52 76-52 45 0 72 20 72 64v82c-1 20 7 32 28 27v20c-31 9-61-2-59-35zM48-53c0 20 12 33 32 33 41-3 63-29 60-74-43 2-92-5-92 41" id="W"/><g id="f"><use transform="matrix(0.05,0,0,0.05,0,0)" xlink:href="#U"/><use transform="matrix(0.05,0,0,0.05,9,0)" xlink:href="#V"/><use transform="matrix(0.05,0,0,0.05,14,0)" xlink:href="#W"/><use transform="matrix(0.05,0,0,0.05,24,0)" xlink:href="#V"/><use transform="matrix(0.05,0,0,0.05,29,0)" xlink:href="#S"/></g><path fill="#ffdf71" d="M190 0L58-211 59 0H30v-248h39L202-35l-2-213h31V0h-41" id="X"/><path fill="#ffdf71" d="M100-194c63 0 86 42 84 106H49c0 40 14 67 53 68 26 1 43-12 49-29l28 8c-11 28-37 45-77 45C44 4 14-33 15-96c1-61 26-98 85-98zm52 81c6-60-76-77-97-28-3 7-6 17-6 28h103" id="Y"/><path fill="#ffdf71" d="M206 0h-36l-40-164L89 0H53L-1-190h32L70-26l43-164h34l41 164 42-164h31" id="Z"/><g id="g"><use transform="matrix(0.05,0,0,0.05,0,0)" xlink:href="#X"/><use transform="matrix(0.05,0,0,0.05,12.950000000000001,0)" xlink:href="#Y"/><use transform="matrix(0.05,0,0,0.05,22.950000000000003,0)" xlink:href="#Z"/></g><path fill="#ffdf71" d="M108 0H70L1-190h34L89-25l56-165h34" id="aa"/><path fill="#ffdf71" d="M117-194c89-4 53 116 60 194h-32v-121c0-31-8-49-39-48C34-167 62-67 57 0H25l-1-190h30c1 10-1 24 2 32 11-22 29-35 61-36" id="ab"/><path fill="#ffdf71" d="M59-47c-2 24 18 29 38 22v24C64 9 27 4 27-40v-127H5v-23h24l9-43h21v43h35v23H59v120" id="ac"/><path fill="#ffdf71" d="M135-143c-3-34-86-38-87 0 15 53 115 12 119 90S17 21 10-45l28-5c4 36 97 45 98 0-10-56-113-15-118-90-4-57 82-63 122-42 12 7 21 19 24 35" id="ad"/><g id="h"><use transform="matrix(0.05,0,0,0.05,0,0)" xlink:href="#Y"/><use transform="matrix(0.05,0,0,0.05,10,0)" xlink:href="#aa"/><use transform="matrix(0.05,0,0,0.05,19,0)" xlink:href="#Y"/><use transform="matrix(0.05,0,0,0.05,29,0)" xlink:href="#ab"/><use transform="matrix(0.05,0,0,0.05,39,0)" xlink:href="#ac"/><use transform="matrix(0.05,0,0,0.05,44,0)" xlink:href="#ad"/></g><path d="M30 0v-248h33v221h125V0H30" id="ae"/><g id="i"><use transform="matrix(0.05,0,0,0.05,0,0)" xlink:href="#ae"/><use transform="matrix(0.05,0,0,0.05,10,0)" xlink:href="#O"/><use transform="matrix(0.05,0,0,0.05,20,0)" xlink:href="#N"/><use transform="matrix(0.05,0,0,0.05,30,0)" xlink:href="#G"/></g><path d="M114-163C36-179 61-72 57 0H25l-1-190h30c1 12-1 29 2 39 6-27 23-49 58-41v29" id="af"/><path d="M108 0H70L1-190h34L89-25l56-165h34" id="ag"/><path d="M84 4C-5 8 30-112 23-190h32v120c0 31 7 50 39 49 72-2 45-101 50-169h31l1 190h-30c-1-10 1-25-2-33-11 22-28 36-60 37" id="ah"/><path d="M135-143c-3-34-86-38-87 0 15 53 115 12 119 90S17 21 10-45l28-5c4 36 97 45 98 0-10-56-113-15-118-90-4-57 82-63 122-42 12 7 21 19 24 35" id="ai"/><g id="j"><use transform="matrix(0.05,0,0,0.05,0,0)" xlink:href="#I"/><use transform="matrix(0.05,0,0,0.05,10,0)" xlink:href="#af"/><use transform="matrix(0.05,0,0,0.05,15.949999999999998,0)" xlink:href="#D"/><use transform="matrix(0.05,0,0,0.05,25.950000000000003,0)" xlink:href="#ag"/><use transform="matrix(0.05,0,0,0.05,34.95,0)" xlink:href="#F"/><use transform="matrix(0.05,0,0,0.05,38.900000000000006,0)" xlink:href="#O"/><use transform="matrix(0.05,0,0,0.05,48.900000000000006,0)" xlink:href="#ah"/><use transform="matrix(0.05,0,0,0.05,58.900000000000006,0)" xlink:href="#ai"/></g><g id="k"><use transform="matrix(0.05,0,0,0.05,0,0)" xlink:href="#D"/><use transform="matrix(0.05,0,0,0.05,10,0)" xlink:href="#ag"/><use transform="matrix(0.05,0,0,0.05,19,0)" xlink:href="#D"/><use transform="matrix(0.05,0,0,0.05,29,0)" xlink:href="#Q"/><use transform="matrix(0.05,0,0,0.05,39,0)" xlink:href="#M"/><use transform="matrix(0.05,0,0,0.05,44,0)" xlink:href="#ai"/></g><g id="l"><use transform="matrix(0.05,0,0,0.05,0,0)" xlink:href="#C"/><use transform="matrix(0.05,0,0,0.05,12.950000000000001,0)" xlink:href="#D"/><use transform="matrix(0.05,0,0,0.05,22.950000000000003,0)" xlink:href="#E"/><use transform="matrix(0.05,0,0,0.05,31.950000000000003,0)" xlink:href="#F"/><use transform="matrix(0.05,0,0,0.05,35.900000000000006,0)" xlink:href="#G"/><use transform="matrix(0.05,0,0,0.05,45.900000000000006,0)" xlink:href="#D"/></g><path d="M106-169C34-169 62-67 57 0H25v-261h32l-1 103c12-21 28-36 61-36 89 0 53 116 60 194h-32v-121c2-32-8-49-39-48" id="aj"/><path d="M206 0h-36l-40-164L89 0H53L-1-190h32L70-26l43-164h34l41 164 42-164h31" id="ak"/><g id="m"><use transform="matrix(0.05,0,0,0.05,0,0)" xlink:href="#aj"/><use transform="matrix(0.05,0,0,0.05,10,0)" xlink:href="#O"/><use transform="matrix(0.05,0,0,0.05,20,0)" xlink:href="#ak"/></g><g id="n"><use transform="matrix(0.05,0,0,0.05,0,0)" xlink:href="#M"/><use transform="matrix(0.05,0,0,0.05,5,0)" xlink:href="#O"/></g><g id="o"><use transform="matrix(0.05,0,0,0.05,0,0)" xlink:href="#aj"/><use transform="matrix(0.05,0,0,0.05,10,0)" xlink:href="#N"/><use transform="matrix(0.05,0,0,0.05,20,0)" xlink:href="#Q"/><use transform="matrix(0.05,0,0,0.05,30,0)" xlink:href="#G"/><use transform="matrix(0.05,0,0,0.05,40,0)" xlink:href="#J"/><use transform="matrix(0.05,0,0,0.05,43.95,0)" xlink:href="#D"/></g><path d="M145-31C134-9 116 4 85 4 32 4 16-35 15-94c0-59 17-99 70-100 32-1 48 14 60 33 0-11-1-24 2-32h30l-1 268h-32zM93-21c41 0 51-33 51-76s-8-73-50-73c-40 0-46 35-46 75s5 74 45 74" id="al"/><g id="p"><use transform="matrix(0.05,0,0,0.05,0,0)" xlink:href="#af"/><use transform="matrix(0.05,0,0,0.05,5.95,0)" xlink:href="#D"/><use transform="matrix(0.05,0,0,0.05,15.949999999999998,0)" xlink:href="#al"/><use transform="matrix(0.05,0,0,0.05,25.950000000000003,0)" xlink:href="#ah"/><use transform="matrix(0.05,0,0,0.05,35.95,0)" xlink:href="#D"/><use transform="matrix(0.05,0,0,0.05,45.95,0)" xlink:href="#ai"/><use transform="matrix(0.05,0,0,0.05,54.95,0)" xlink:href="#M"/></g><g id="q"><use transform="matrix(0.05,0,0,0.05,0,0)" xlink:href="#H"/><use transform="matrix(0.05,0,0,0.05,12,0)" xlink:href="#I"/><use transform="matrix(0.05,0,0,0.05,22,0)" xlink:href="#I"/><use transform="matrix(0.05,0,0,0.05,32,0)" xlink:href="#J"/><use transform="matrix(0.05,0,0,0.05,35.95,0)" xlink:href="#K"/></g><g id="r"><use transform="matrix(0.05,0,0,0.05,0,0)" xlink:href="#D"/><use transform="matrix(0.05,0,0,0.05,10,0)" xlink:href="#ag"/><use transform="matrix(0.05,0,0,0.05,19,0)" xlink:href="#D"/><use transform="matrix(0.05,0,0,0.05,29,0)" xlink:href="#Q"/><use transform="matrix(0.05,0,0,0.05,39,0)" xlink:href="#M"/><use transform="matrix(0.05,0,0,0.05,44,0)" xlink:href="#ai"/></g><g id="s"><use transform="matrix(0.05,0,0,0.05,0,0)" xlink:href="#G"/><use transform="matrix(0.05,0,0,0.05,10,0)" xlink:href="#D"/><use transform="matrix(0.05,0,0,0.05,20,0)" xlink:href="#af"/><use transform="matrix(0.05,0,0,0.05,25.950000000000003,0)" xlink:href="#F"/><use transform="matrix(0.05,0,0,0.05,29.899999999999995,0)" xlink:href="#ag"/><use transform="matrix(0.05,0,0,0.05,38.9,0)" xlink:href="#D"/></g><g id="t"><use transform="matrix(0.05,0,0,0.05,0,0)" xlink:href="#ai"/><use transform="matrix(0.05,0,0,0.05,9,0)" xlink:href="#M"/><use transform="matrix(0.05,0,0,0.05,14,0)" xlink:href="#N"/><use transform="matrix(0.05,0,0,0.05,24,0)" xlink:href="#M"/><use transform="matrix(0.05,0,0,0.05,29,0)" xlink:href="#D"/></g><path d="M233-177c-1 41-23 64-60 70L243 0h-38l-65-103H63V0H30v-248c88 3 205-21 203 71zM63-129c60-2 137 13 137-47 0-61-80-42-137-45v92" id="am"/><g id="u"><use transform="matrix(0.05,0,0,0.05,0,0)" xlink:href="#am"/><use transform="matrix(0.05,0,0,0.05,12.950000000000001,0)" xlink:href="#D"/><use transform="matrix(0.05,0,0,0.05,22.950000000000003,0)" xlink:href="#E"/><use transform="matrix(0.05,0,0,0.05,31.950000000000003,0)" xlink:href="#O"/><use transform="matrix(0.05,0,0,0.05,41.95,0)" xlink:href="#af"/><use transform="matrix(0.05,0,0,0.05,47.900000000000006,0)" xlink:href="#G"/></g><g id="v"><use transform="matrix(0.05,0,0,0.05,0,0)" xlink:href="#G"/><use transform="matrix(0.05,0,0,0.05,10,0)" xlink:href="#D"/><use transform="matrix(0.05,0,0,0.05,20,0)" xlink:href="#E"/><use transform="matrix(0.05,0,0,0.05,29,0)" xlink:href="#F"/><use transform="matrix(0.05,0,0,0.05,32.95,0)" xlink:href="#ai"/><use transform="matrix(0.05,0,0,0.05,41.95,0)" xlink:href="#F"/><use transform="matrix(0.05,0,0,0.05,45.900000000000006,0)" xlink:href="#O"/><use transform="matrix(0.05,0,0,0.05,55.900000000000006,0)" xlink:href="#Q"/></g><g id="w"><use transform="matrix(0.05,0,0,0.05,0,0)" xlink:href="#N"/><use transform="matrix(0.05,0,0,0.05,10,0)" xlink:href="#ai"/></g><g id="x"><use transform="matrix(0.05,0,0,0.05,0,0)" xlink:href="#N"/><use transform="matrix(0.05,0,0,0.05,10,0)" xlink:href="#Q"/></g><g id="y"><use transform="matrix(0.05,0,0,0.05,0,0)" xlink:href="#D"/><use transform="matrix(0.05,0,0,0.05,10,0)" xlink:href="#ag"/><use transform="matrix(0.05,0,0,0.05,19,0)" xlink:href="#D"/><use transform="matrix(0.05,0,0,0.05,29,0)" xlink:href="#Q"/><use transform="matrix(0.05,0,0,0.05,39,0)" xlink:href="#M"/></g><path d="M30-248c87 1 191-15 191 75 0 78-77 80-158 76V0H30v-248zm33 125c57 0 124 11 124-50 0-59-68-47-124-48v98" id="an"/><g id="z"><use transform="matrix(0.05,0,0,0.05,0,0)" xlink:href="#an"/><use transform="matrix(0.05,0,0,0.05,12,0)" xlink:href="#D"/><use transform="matrix(0.05,0,0,0.05,22,0)" xlink:href="#af"/><use transform="matrix(0.05,0,0,0.05,27.950000000000003,0)" xlink:href="#ai"/><use transform="matrix(0.05,0,0,0.05,36.95,0)" xlink:href="#F"/><use transform="matrix(0.05,0,0,0.05,40.900000000000006,0)" xlink:href="#ai"/><use transform="matrix(0.05,0,0,0.05,49.900000000000006,0)" xlink:href="#M"/></g><g id="A"><use transform="matrix(0.05,0,0,0.05,0,0)" xlink:href="#M"/><use transform="matrix(0.05,0,0,0.05,5,0)" xlink:href="#aj"/><use transform="matrix(0.05,0,0,0.05,15,0)" xlink:href="#D"/></g><g id="B"><use transform="matrix(0.05,0,0,0.05,0,0)" xlink:href="#Q"/><use transform="matrix(0.05,0,0,0.05,10,0)" xlink:href="#D"/><use transform="matrix(0.05,0,0,0.05,20,0)" xlink:href="#ak"/></g></defs></g></svg>